<?xml version="1.0" encoding="UTF-8" standalone="no"?>
<svg
   xmlns:dc="http://purl.org/dc/elements/1.1/"
   xmlns:cc="http://creativecommons.org/ns#"
   xmlns:rdf="http://www.w3.org/1999/02/22-rdf-syntax-ns#"
   xmlns:svg="http://www.w3.org/2000/svg"
   xmlns="http://www.w3.org/2000/svg"
   version="1.1"
   id="svg2"
   viewBox="0 0 38.55478 42.714811"
   height="12.055069mm"
   width="10.881016mm">
  <defs
     id="defs4" />
  <metadata
     id="metadata7">
    <rdf:RDF>
      <cc:Work
         rdf:about="">
        <dc:format>image/svg+xml</dc:format>
        <dc:type
           rdf:resource="http://purl.org/dc/dcmitype/StillImage" />
        <dc:title></dc:title>
      </cc:Work>
    </rdf:RDF>
  </metadata>
  <g
     transform="translate(-14.951465,-95.292883)"
     id="layer1">
    <g
       transform="translate(-64.470313,-55.532997)"
       id="layer1-9">
      <g
         id="flowRoot3336"
         style="font-style:normal;font-weight:normal;font-size:40px;line-height:125%;font-family:sans-serif;letter-spacing:0px;word-spacing:0px;fill:#000000;fill-opacity:1;stroke:none;stroke-width:1px;stroke-linecap:butt;stroke-linejoin:miter;stroke-opacity:1">
        <path
           id="path4227"
           style="font-style:normal;font-variant:normal;font-weight:normal;font-stretch:normal;font-family:OpenSansEmoji;-inkscape-font-specification:OpenSansEmoji"
           d="m 117.97656,186.04069 c 0,0.9961 -0.37109,1.875 -1.09375,2.59766 -0.72265,0.68359 -1.58203,1.03515 -2.53906,1.03515 l -0.64453,0 -0.0977,1.97266 -0.11718,0.72266 c 0,0.60547 -0.46875,1.17187 -1.3086,1.17187 -0.85937,0 -1.32812,-0.39062 -1.40625,-1.17187 -0.0391,-0.11719 -0.0781,-0.39063 -0.11719,-0.80078 -0.0391,-0.41016 -0.0781,-0.95704 -0.0977,-1.66016 -5.64453,0.23437 -9.55078,0.37109 -11.875003,0.37109 -1.953125,0 -5.703125,-0.13672 -11.347656,-0.37109 l -0.117187,1.79687 -0.09766,0.66407 c 0,0.60547 -0.507812,1.17187 -1.289062,1.17187 -0.859375,0 -1.328125,-0.39062 -1.40625,-1.17187 -0.05859,-0.15625 -0.117188,-0.44922 -0.15625,-0.89844 -0.03906,-0.44922 -0.07813,-1.01563 -0.09766,-1.71875 l -1.113282,-0.0781 c -0.996093,-0.0781 -1.855468,-0.35156 -2.558593,-1.03515 -0.722657,-0.70313 -1.074219,-1.5625 -1.074219,-2.59766 l 0,-19.43359 c 0,-1.97266 1.601562,-3.63281 3.632812,-3.63281 0.09766,-0.0195 0.957032,-0.0977 2.539063,-0.23438 1.582031,-0.13672 3.90625,-0.25391 6.972656,-0.35156 0.3125,-0.9961 0.898438,-1.73828 1.738281,-2.30469 l -3.398437,-5.3125 c -0.253906,0.0781 -0.527344,0.13672 -0.761719,0.13672 -1.171875,0 -2.03125,-0.85938 -2.03125,-2.03125 0,-1.17188 0.859375,-2.05078 2.03125,-2.05078 0.566406,0 1.074219,0.21484 1.445313,0.58594 0.371093,0.39062 0.605468,0.89843 0.605468,1.46484 0,0.48828 -0.15625,0.91797 -0.488281,1.28906 l 4.199219,5.17578 c 0.644531,-0.17578 1.289062,-0.29297 1.933594,-0.29297 0.605468,0 1.191406,0.0586 1.816406,0.27344 l 4.179687,-5.15625 c -0.3125,-0.37109 -0.46875,-0.80078 -0.46875,-1.28906 0,-1.17188 0.85937,-2.05078 2.03125,-2.05078 1.17187,0 2.05078,0.8789 2.05078,2.05078 0,1.17187 -0.87891,2.03125 -2.05078,2.03125 -0.25391,0 -0.46875,-0.0586 -0.76172,-0.13672 l -3.4375,5.37109 c 0.91797,0.74219 1.50391,1.46485 1.73828,2.1875 4.86328,0.0781 8.65234,0.29297 11.40625,0.64454 1.97266,0 3.63281,1.62109 3.63281,3.63281 l 0,19.43359 z m -8.14453,-10.13672 c 0,-4.23828 -0.3125,-6.85547 -0.91797,-7.85156 -0.29297,-0.46875 -0.66406,-0.82031 -1.32812,-1.11328 -0.66406,-0.29297 -1.58203,-0.48828 -2.91016,-0.58594 -1.34765,-0.13672 -2.67578,-0.19531 -4.0039,-0.2539 -1.347661,-0.0586 -2.968755,-0.0781 -4.92188,-0.0781 -2.675781,0 -4.863281,0.0586 -6.71875,0.19531 -1.816406,0.13672 -3.007813,0.23438 -3.632813,0.44922 -0.605468,0.17578 -1.054687,0.48828 -1.464843,0.82031 -0.371094,0.33204 -0.683594,0.82032 -0.9375,1.42579 -0.449219,1.15234 -0.703125,4.82421 -0.761719,6.40625 -0.03906,0.80078 -0.05859,1.52343 -0.05859,2.16796 0,1.89454 0.09766,3.51563 0.351563,4.84375 0.46875,2.63672 1.503906,3.59375 4.316406,3.84766 3.339844,0.29297 6.328125,0.39063 9.140625,0.39063 1.972656,0 3.925781,-0.0586 5.878901,-0.15625 1.95313,-0.13672 3.35938,-0.21485 4.19922,-0.35157 1.77734,-0.29297 2.57813,-0.89843 3.10547,-2.1289 0.23437,-0.625 0.41016,-1.66016 0.50781,-3.16407 0.0781,-1.48437 0.15625,-3.125 0.15625,-4.86328 z m 3.90625,-4.47265 c 0.60547,0 1.15235,-0.25391 1.54297,-0.66407 0.39063,-0.39062 0.64453,-0.9375 0.64453,-1.54296 0,-0.625 -0.2539,-1.17188 -0.64453,-1.58204 -0.39062,-0.39062 -0.9375,-0.625 -1.54297,-0.625 -0.60547,0 -1.15234,0.23438 -1.54297,0.625 -0.41015,0.41016 -0.66406,0.95704 -0.66406,1.58204 0,0.60546 0.25391,1.15234 0.66406,1.54296 0.39063,0.41016 0.9375,0.66407 1.54297,0.66407 z m 0,6.5039 c 0.60547,0 1.15235,-0.23437 1.54297,-0.64453 0.39063,-0.39062 0.64453,-0.9375 0.64453,-1.5625 0,-0.625 -0.2539,-1.17187 -0.64453,-1.5625 -0.39062,-0.39062 -0.9375,-0.625 -1.54297,-0.625 -0.60547,0 -1.15234,0.23438 -1.54297,0.625 -0.41015,0.39063 -0.66406,0.9375 -0.66406,1.5625 0,0.625 0.25391,1.17188 0.66406,1.5625 0.39063,0.41016 0.9375,0.64453 1.54297,0.64453 z" />
      </g>
      <g
         id="flowRoot3344"
         style="font-style:normal;font-weight:normal;font-size:40px;line-height:125%;font-family:sans-serif;letter-spacing:0px;word-spacing:0px;fill:#000000;fill-opacity:1;stroke:none;stroke-width:1px;stroke-linecap:butt;stroke-linejoin:miter;stroke-opacity:1"
         transform="matrix(0.39318583,0,0,0.39318583,57.938672,106.18491)">
        <path
           id="path4230"
           style="font-style:normal;font-variant:normal;font-weight:normal;font-stretch:normal;font-family:FontAwesome;-inkscape-font-specification:FontAwesome;fill:#000000"
           d="m 85.289621,194.92997 15.848209,-15.84822 c 0.13393,-0.13393 0.22322,-0.26785 0.29018,-0.4241 l 0,15.84821 c 0,0.78125 0.44643,0.98214 1.00447,0.42411 l 15.84821,-15.84822 c 0.55804,-0.55803 0.55804,-1.45089 0,-2.00893 l -15.84821,-15.84821 c -0.55804,-0.55804 -1.00447,-0.35714 -1.00447,0.42411 l 0,15.84821 c -0.067,-0.15625 -0.15625,-0.29018 -0.29018,-0.42411 L 85.289621,161.22461 c -0.558036,-0.55804 -1.004465,-0.35714 -1.004465,0.42411 l 0,32.85714 c 0,0.78125 0.446429,0.98214 1.004465,0.42411 z" />
      </g>
    </g>
  </g>
</svg>
